Coordinates
version=1
nRows=7
nColumns=40
inDegrees=yes

Units are S.I. units (second, meters, Newtons, ...)
If the header above contains a line with 'inDegrees', this indicates whether rotational values are in degrees (yes) or radians (no).

endheader
time	pelvis_tilt	pelvis_list	pelvis_rotation	pelvis_tx	pelvis_ty	pelvis_tz	hip_flexion_r	hip_adduction_r	hip_rotation_r	knee_angle_r	knee_angle_r_beta	ankle_angle_r	subtalar_angle_r	mtp_angle_r	hip_flexion_l	hip_adduction_l	hip_rotation_l	knee_angle_l	knee_angle_l_beta	ankle_angle_l	subtalar_angle_l	mtp_angle_l	lumbar_extension	lumbar_bending	lumbar_rotation	arm_flex_r	arm_add_r	arm_rot_r	elbow_flex_r	pro_sup_r	wrist_flex_r	wrist_dev_r	arm_flex_l	arm_add_l	arm_rot_l	elbow_flex_l	pro_sup_l	wrist_flex_l	wrist_dev_l
      1.78000000	      1.97241868	    -10.14585896	     83.41684968	      0.24226001	      0.94774861	     -0.83718013	    -10.17520338	      3.96242026	      4.55420484	      7.11741305	      0.12422229	     15.32606359	      0.00000000	      0.00000000	     32.85969203	     -4.70478357	     -3.72440701	     -4.19105930	     -0.07314778	     -0.59520152	      0.00000000	      0.00000000	      1.58676019	     -0.17654160	      7.56066589	      0.00000000	      0.00000000	      0.00000000	      0.00000000	      0.00000000	      0.00000000	      0.00000000	      0.00000000	      0.00000000	      0.00000000	      0.00000000	      0.00000000	      0.00000000	      0.00000000
      1.79000000	      1.37799026	    -10.37379598	     83.51590382	      0.24085025	      0.94645587	     -0.85339797	    -10.19642635	      3.19278560	      4.30996300	      8.27957720	      0.14450588	     14.73049091	      0.00000000	      0.00000000	     33.06436382	     -3.88530039	     -4.06976600	     -3.37096520	     -0.05883444	     -2.05943823	      0.00000000	      0.00000000	      1.97260995	     -0.87185236	      7.44813739	      0.00000000	      0.00000000	      0.00000000	      0.00000000	      0.00000000	      0.00000000	      0.00000000	      0.00000000	      0.00000000	      0.00000000	      0.00000000	      0.00000000	      0.00000000	      0.00000000
      1.80000000	      0.73259912	    -10.55297166	     83.68421420	      0.23929457	      0.94567209	     -0.86968628	    -10.07990995	      2.38292500	      3.93519405	      9.73466994	      0.16990204	     13.87271946	     -0.00000000	     -0.00000000	     33.24468337	     -2.98566225	     -4.41395787	     -2.29300538	     -0.04002049	     -3.82819070	     -0.00000000	      0.00000000	      2.30445751	     -1.63697011	      7.27339462	     -0.00000000	      0.00000000	     -0.00000000	      0.00000000	      0.00000000	     -0.00000000	     -0.00000000	     -0.00000000	     -0.00000000	      0.00000000	      0.00000000	      0.00000000	     -0.00000000	      0.00000000
      1.81000000	      0.03315743	    -10.69695008	     83.90794457	      0.23759388	      0.94537431	     -0.88605093	     -9.79062357	      1.52437797	      3.43000787	     11.50405437	      0.20078363	     12.72616744	      0.00000000	      0.00000000	     33.38928489	     -2.01853590	     -4.71951190	     -1.05483726	     -0.01841038	     -5.75392945	      0.00000000	      0.00000000	      2.59383022	     -2.46948562	      7.03708305	      0.00000000	      0.00000000	      0.00000000	      0.00000000	      0.00000000	      0.00000000	      0.00000000	      0.00000000	      0.00000000	      0.00000000	      0.00000000	      0.00000000	      0.00000000	      0.00000000
      1.82000000	     -0.67745716	    -10.79199746	     84.20684854	      0.23576291	      0.94557057	     -0.90246100	     -9.34889133	      0.66476545	      2.82014722	     13.57586187	      0.23694349	     11.20729028	      0.00000000	     -0.00000000	     33.48158298	     -1.02346089	     -4.94749216	      0.29599177	      0.00516603	     -7.62729290	     -0.00000000	      0.00000000	      2.81518716	     -3.32599671	      6.68929266	     -0.00000000	      0.00000000	     -0.00000000	      0.00000000	      0.00000000	      0.00000000	     -0.00000000	     -0.00000000	     -0.00000000	      0.00000000	      0.00000000	      0.00000000	     -0.00000000	      0.00000000
      1.83000000	     -1.40627416	    -10.84769692	     84.55518349	      0.23388828	      0.94622929	     -0.91890043	     -8.72593025	     -0.21075106	      2.11966973	     15.96977834	      0.27872521	      9.33590383	      0.00000000	      0.00000000	     33.51521999	     -0.01123383	     -5.08262551	      1.70426803	      0.02974509	     -9.29422788	      0.00000000	      0.00000000	      2.98761401	     -4.23073479	      6.28209052	      0.00000000	      0.00000000	      0.00000000	      0.00000000	      0.00000000	      0.00000000	      0.00000000	      0.00000000	      0.00000000	      0.00000000	      0.00000000	      0.00000000	      0.00000000	      0.00000000
      1.84000000	     -2.11949660	    -10.83805858	     84.94697566	      0.23179693	      0.94736065	     -0.93526420	     -7.92121054	     -1.09344731	      1.37498438	     18.72325370	      0.32678242	      7.06525225	      0.00000000	      0.00000000	     33.46080771	      1.00182922	     -5.13096270	      3.13777223	      0.05476446	    -10.60465405	      0.00000000	      0.00000000	      3.05249289	     -5.07333871	      5.80644366	      0.00000000	      0.00000000	      0.00000000	      0.00000000	      0.00000000	      0.00000000	      0.00000000	      0.00000000	      0.00000000	      0.00000000	      0.00000000	      0.00000000	      0.00000000	      0.00000000
